<svg xmlns="http://www.w3.org/2000/svg" viewBox="0 0 432 616" width="432" height="616">
<rect x="8" y="432" width="7" height="7" fill="#fc4c02"/>
<rect x="16" y="416" width="7" height="7" fill="#fc4c02"/>
<rect x="16" y="424" width="7" height="7" fill="#fc4c02"/>
<rect x="16" y="432" width="7" height="7" fill="#fc4c02"/>
<rect x="24" y="320" width="7" height="7" fill="#fc4c02"/>
<rect x="24" y="328" width="7" height="7" fill="#fc4c02"/>
<rect x="24" y="384" width="7" height="7" fill="#fc4c02"/>
<rect x="24" y="392" width="7" height="7" fill="#fc4c02"/>
<rect x="24" y="400" width="7" height="7" fill="#fc4c02"/>
<rect x="24" y="408" width="7" height="7" fill="#fc4c02"/>
<rect x="24" y="416" width="7" height="7" fill="#fc4c02"/>
<rect x="24" y="424" width="7" height="7" fill="#fc4c02"/>
<rect x="24" y="432" width="7" height="7" fill="#fc4c02"/>
<rect x="24" y="440" width="7" height="7" fill="#fc4c02"/>
<rect x="24" y="448" width="7" height="7" fill="#fc4c02"/>
<rect x="32" y="320" width="7" height="7" fill="#fc4c02"/>
<rect x="32" y="328" width="7" height="7" fill="#fc4c02"/>
<rect x="32" y="336" width="7" height="7" fill="#fc4c02"/>
<rect x="32" y="344" width="7" height="7" fill="#fc4c02"/>
<rect x="32" y="384" width="7" height="7" fill="#fc4c02"/>
<rect x="32" y="408" width="7" height="7" fill="#fc4c02"/>
<rect x="32" y="416" width="7" height="7" fill="#fc4c02"/>
<rect x="32" y="424" width="7" height="7" fill="#fc4c02"/>
<rect x="32" y="432" width="7" height="7" fill="#fc4c02"/>
<rect x="32" y="448" width="7" height="7" fill="#fc4c02"/>
<rect x="40" y="272" width="7" height="7" fill="#fc4c02"/>
<rect x="40" y="280" width="7" height="7" fill="#fc4c02"/>
<rect x="40" y="288" width="7" height="7" fill="#fc4c02"/>
<rect x="40" y="320" width="7" height="7" fill="#fc4c02"/>
<rect x="40" y="328" width="7" height="7" fill="#fc4c02"/>
<rect x="40" y="336" width="7" height="7" fill="#fc4c02"/>
<rect x="40" y="344" width="7" height="7" fill="#fc4c02"/>
<rect x="40" y="352" width="7" height="7" fill="#fc4c02"/>
<rect x="40" y="384" width="7" height="7" fill="#fc4c02"/>
<rect x="40" y="392" width="7" height="7" fill="#fc4c02"/>
<rect x="40" y="400" width="7" height="7" fill="#fc4c02"/>
<rect x="40" y="408" width="7" height="7" fill="#fc4c02"/>
<rect x="40" y="432" width="7" height="7" fill="#fc4c02"/>
<rect x="40" y="440" width="7" height="7" fill="#fc4c02"/>
<rect x="40" y="448" width="7" height="7" fill="#fc4c02"/>
<rect x="48" y="184" width="7" height="7" fill="#fc4c02"/>
<rect x="48" y="192" width="7" height="7" fill="#fc4c02"/>
<rect x="48" y="200" width="7" height="7" fill="#fc4c02"/>
<rect x="48" y="224" width="7" height="7" fill="#fc4c02"/>
<rect x="48" y="232" width="7" height="7" fill="#fc4c02"/>
<rect x="48" y="240" width="7" height="7" fill="#fc4c02"/>
<rect x="48" y="248" width="7" height="7" fill="#fc4c02"/>
<rect x="48" y="256" width="7" height="7" fill="#fc4c02"/>
<rect x="48" y="264" width="7" height="7" fill="#fc4c02"/>
<rect x="48" y="272" width="7" height="7" fill="#fc4c02"/>
<rect x="48" y="280" width="7" height="7" fill="#fc4c02"/>
<rect x="48" y="288" width="7" height="7" fill="#fc4c02"/>
<rect x="48" y="320" width="7" height="7" fill="#fc4c02"/>
<rect x="48" y="328" width="7" height="7" fill="#fc4c02"/>
<rect x="48" y="336" width="7" height="7" fill="#fc4c02"/>
<rect x="48" y="344" width="7" height="7" fill="#fc4c02"/>
<rect x="48" y="352" width="7" height="7" fill="#fc4c02"/>
<rect x="48" y="376" width="7" height="7" fill="#fc4c02"/>
<rect x="48" y="384" width="7" height="7" fill="#fc4c02"/>
<rect x="48" y="440" width="7" height="7" fill="#fc4c02"/>
<rect x="48" y="448" width="7" height="7" fill="#fc4c02"/>
<rect x="56" y="120" width="7" height="7" fill="#fc4c02"/>
<rect x="56" y="128" width="7" height="7" fill="#fc4c02"/>
<rect x="56" y="136" width="7" height="7" fill="#fc4c02"/>
<rect x="56" y="144" width="7" height="7" fill="#fc4c02"/>
<rect x="56" y="152" width="7" height="7" fill="#fc4c02"/>
<rect x="56" y="160" width="7" height="7" fill="#fc4c02"/>
<rect x="56" y="168" width="7" height="7" fill="#fc4c02"/>
<rect x="56" y="176" width="7" height="7" fill="#fc4c02"/>
<rect x="56" y="184" width="7" height="7" fill="#fc4c02"/>
<rect x="56" y="192" width="7" height="7" fill="#fc4c02"/>
<rect x="56" y="200" width="7" height="7" fill="#fc4c02"/>
<rect x="56" y="208" width="7" height="7" fill="#fc4c02"/>
<rect x="56" y="216" width="7" height="7" fill="#fc4c02"/>
<rect x="56" y="224" width="7" height="7" fill="#fc4c02"/>
<rect x="56" y="288" width="7" height="7" fill="#fc4c02"/>
<rect x="56" y="296" width="7" height="7" fill="#fc4c02"/>
<rect x="56" y="336" width="7" height="7" fill="#fc4c02"/>
<rect x="56" y="344" width="7" height="7" fill="#fc4c02"/>
<rect x="56" y="352" width="7" height="7" fill="#fc4c02"/>
<rect x="56" y="376" width="7" height="7" fill="#fc4c02"/>
<rect x="56" y="432" width="7" height="7" fill="#fc4c02"/>
<rect x="56" y="440" width="7" height="7" fill="#fc4c02"/>
<rect x="56" y="448" width="7" height="7" fill="#fc4c02"/>
<rect x="64" y="112" width="7" height="7" fill="#fc4c02"/>
<rect x="64" y="120" width="7" height="7" fill="#fc4c02"/>
<rect x="64" y="200" width="7" height="7" fill="#fc4c02"/>
<rect x="64" y="296" width="7" height="7" fill="#fc4c02"/>
<rect x="64" y="304" width="7" height="7" fill="#fc4c02"/>
<rect x="64" y="312" width="7" height="7" fill="#fc4c02"/>
<rect x="64" y="336" width="7" height="7" fill="#fc4c02"/>
<rect x="64" y="352" width="7" height="7" fill="#fc4c02"/>
<rect x="64" y="360" width="7" height="7" fill="#fc4c02"/>
<rect x="64" y="368" width="7" height="7" fill="#fc4c02"/>
<rect x="64" y="376" width="7" height="7" fill="#fc4c02"/>
<rect x="64" y="432" width="7" height="7" fill="#fc4c02"/>
<rect x="64" y="440" width="7" height="7" fill="#fc4c02"/>
<rect x="64" y="448" width="7" height="7" fill="#fc4c02"/>
<rect x="72" y="72" width="7" height="7" fill="#fc4c02"/>
<rect x="72" y="80" width="7" height="7" fill="#fc4c02"/>
<rect x="72" y="96" width="7" height="7" fill="#fc4c02"/>
<rect x="72" y="104" width="7" height="7" fill="#fc4c02"/>
<rect x="72" y="112" width="7" height="7" fill="#fc4c02"/>
<rect x="72" y="312" width="7" height="7" fill="#fc4c02"/>
<rect x="72" y="328" width="7" height="7" fill="#fc4c02"/>
<rect x="72" y="336" width="7" height="7" fill="#fc4c02"/>
<rect x="72" y="352" width="7" height="7" fill="#fc4c02"/>
<rect x="72" y="360" width="7" height="7" fill="#fc4c02"/>
<rect x="72" y="368" width="7" height="7" fill="#fc4c02"/>
<rect x="72" y="432" width="7" height="7" fill="#fc4c02"/>
<rect x="72" y="440" width="7" height="7" fill="#fc4c02"/>
<rect x="80" y="8" width="7" height="7" fill="#fc4c02"/>
<rect x="80" y="16" width="7" height="7" fill="#fc4c02"/>
<rect x="80" y="24" width="7" height="7" fill="#fc4c02"/>
<rect x="80" y="32" width="7" height="7" fill="#fc4c02"/>
<rect x="80" y="40" width="7" height="7" fill="#fc4c02"/>
<rect x="80" y="48" width="7" height="7" fill="#fc4c02"/>
<rect x="80" y="56" width="7" height="7" fill="#fc4c02"/>
<rect x="80" y="64" width="7" height="7" fill="#fc4c02"/>
<rect x="80" y="72" width="7" height="7" fill="#fc4c02"/>
<rect x="80" y="80" width="7" height="7" fill="#fc4c02"/>
<rect x="80" y="88" width="7" height="7" fill="#fc4c02"/>
<rect x="80" y="96" width="7" height="7" fill="#fc4c02"/>
<rect x="80" y="312" width="7" height="7" fill="#fc4c02"/>
<rect x="80" y="320" width="7" height="7" fill="#fc4c02"/>
<rect x="80" y="328" width="7" height="7" fill="#fc4c02"/>
<rect x="80" y="336" width="7" height="7" fill="#fc4c02"/>
<rect x="80" y="344" width="7" height="7" fill="#fc4c02"/>
<rect x="80" y="352" width="7" height="7" fill="#fc4c02"/>
<rect x="80" y="360" width="7" height="7" fill="#fc4c02"/>
<rect x="80" y="368" width="7" height="7" fill="#fc4c02"/>
<rect x="80" y="424" width="7" height="7" fill="#fc4c02"/>
<rect x="80" y="432" width="7" height="7" fill="#fc4c02"/>
<rect x="88" y="8" width="7" height="7" fill="#fc4c02"/>
<rect x="88" y="320" width="7" height="7" fill="#fc4c02"/>
<rect x="88" y="328" width="7" height="7" fill="#fc4c02"/>
<rect x="88" y="336" width="7" height="7" fill="#fc4c02"/>
<rect x="88" y="344" width="7" height="7" fill="#fc4c02"/>
<rect x="88" y="352" width="7" height="7" fill="#fc4c02"/>
<rect x="88" y="368" width="7" height="7" fill="#fc4c02"/>
<rect x="88" y="416" width="7" height="7" fill="#fc4c02"/>
<rect x="88" y="424" width="7" height="7" fill="#fc4c02"/>
<rect x="96" y="8" width="7" height="7" fill="#fc4c02"/>
<rect x="96" y="320" width="7" height="7" fill="#fc4c02"/>
<rect x="96" y="344" width="7" height="7" fill="#fc4c02"/>
<rect x="96" y="352" width="7" height="7" fill="#fc4c02"/>
<rect x="96" y="360" width="7" height="7" fill="#fc4c02"/>
<rect x="96" y="368" width="7" height="7" fill="#fc4c02"/>
<rect x="96" y="376" width="7" height="7" fill="#fc4c02"/>
<rect x="96" y="416" width="7" height="7" fill="#fc4c02"/>
<rect x="96" y="424" width="7" height="7" fill="#fc4c02"/>
<rect x="96" y="432" width="7" height="7" fill="#fc4c02"/>
<rect x="104" y="320" width="7" height="7" fill="#fc4c02"/>
<rect x="104" y="344" width="7" height="7" fill="#fc4c02"/>
<rect x="104" y="352" width="7" height="7" fill="#fc4c02"/>
<rect x="104" y="368" width="7" height="7" fill="#fc4c02"/>
<rect x="104" y="376" width="7" height="7" fill="#fc4c02"/>
<rect x="104" y="384" width="7" height="7" fill="#fc4c02"/>
<rect x="104" y="408" width="7" height="7" fill="#fc4c02"/>
<rect x="104" y="416" width="7" height="7" fill="#fc4c02"/>
<rect x="104" y="424" width="7" height="7" fill="#fc4c02"/>
<rect x="104" y="432" width="7" height="7" fill="#fc4c02"/>
<rect x="104" y="440" width="7" height="7" fill="#fc4c02"/>
<rect x="104" y="448" width="7" height="7" fill="#fc4c02"/>
<rect x="112" y="320" width="7" height="7" fill="#fc4c02"/>
<rect x="112" y="328" width="7" height="7" fill="#fc4c02"/>
<rect x="112" y="344" width="7" height="7" fill="#fc4c02"/>
<rect x="112" y="352" width="7" height="7" fill="#fc4c02"/>
<rect x="112" y="360" width="7" height="7" fill="#fc4c02"/>
<rect x="112" y="368" width="7" height="7" fill="#fc4c02"/>
<rect x="112" y="376" width="7" height="7" fill="#fc4c02"/>
<rect x="112" y="384" width="7" height="7" fill="#fc4c02"/>
<rect x="112" y="392" width="7" height="7" fill="#fc4c02"/>
<rect x="112" y="400" width="7" height="7" fill="#fc4c02"/>
<rect x="112" y="408" width="7" height="7" fill="#fc4c02"/>
<rect x="112" y="416" width="7" height="7" fill="#fc4c02"/>
<rect x="112" y="424" width="7" height="7" fill="#fc4c02"/>
<rect x="112" y="432" width="7" height="7" fill="#fc4c02"/>
<rect x="112" y="440" width="7" height="7" fill="#fc4c02"/>
<rect x="112" y="448" width="7" height="7" fill="#fc4c02"/>
<rect x="120" y="320" width="7" height="7" fill="#fc4c02"/>
<rect x="120" y="328" width="7" height="7" fill="#fc4c02"/>
<rect x="120" y="336" width="7" height="7" fill="#fc4c02"/>
<rect x="120" y="344" width="7" height="7" fill="#fc4c02"/>
<rect x="120" y="352" width="7" height="7" fill="#fc4c02"/>
<rect x="120" y="360" width="7" height="7" fill="#fc4c02"/>
<rect x="120" y="368" width="7" height="7" fill="#fc4c02"/>
<rect x="120" y="376" width="7" height="7" fill="#fc4c02"/>
<rect x="120" y="384" width="7" height="7" fill="#fc4c02"/>
<rect x="120" y="392" width="7" height="7" fill="#fc4c02"/>
<rect x="120" y="400" width="7" height="7" fill="#fc4c02"/>
<rect x="120" y="408" width="7" height="7" fill="#fc4c02"/>
<rect x="120" y="416" width="7" height="7" fill="#fc4c02"/>
<rect x="120" y="424" width="7" height="7" fill="#fc4c02"/>
<rect x="120" y="432" width="7" height="7" fill="#fc4c02"/>
<rect x="120" y="440" width="7" height="7" fill="#fc4c02"/>
<rect x="120" y="448" width="7" height="7" fill="#fc4c02"/>
<rect x="120" y="456" width="7" height="7" fill="#fc4c02"/>
<rect x="120" y="464" width="7" height="7" fill="#fc4c02"/>
<rect x="120" y="472" width="7" height="7" fill="#fc4c02"/>
<rect x="128" y="320" width="7" height="7" fill="#fc4c02"/>
<rect x="128" y="328" width="7" height="7" fill="#fc4c02"/>
<rect x="128" y="336" width="7" height="7" fill="#fc4c02"/>
<rect x="128" y="344" width="7" height="7" fill="#fc4c02"/>
<rect x="128" y="352" width="7" height="7" fill="#fc4c02"/>
<rect x="128" y="360" width="7" height="7" fill="#fc4c02"/>
<rect x="128" y="368" width="7" height="7" fill="#fc4c02"/>
<rect x="128" y="376" width="7" height="7" fill="#fc4c02"/>
<rect x="128" y="384" width="7" height="7" fill="#fc4c02"/>
<rect x="128" y="392" width="7" height="7" fill="#fc4c02"/>
<rect x="128" y="400" width="7" height="7" fill="#fc4c02"/>
<rect x="128" y="408" width="7" height="7" fill="#fc4c02"/>
<rect x="128" y="416" width="7" height="7" fill="#fc4c02"/>
<rect x="128" y="424" width="7" height="7" fill="#fc4c02"/>
<rect x="128" y="432" width="7" height="7" fill="#fc4c02"/>
<rect x="128" y="440" width="7" height="7" fill="#fc4c02"/>
<rect x="128" y="448" width="7" height="7" fill="#fc4c02"/>
<rect x="128" y="472" width="7" height="7" fill="#fc4c02"/>
<rect x="136" y="320" width="7" height="7" fill="#fc4c02"/>
<rect x="136" y="328" width="7" height="7" fill="#fc4c02"/>
<rect x="136" y="344" width="7" height="7" fill="#fc4c02"/>
<rect x="136" y="352" width="7" height="7" fill="#fc4c02"/>
<rect x="136" y="360" width="7" height="7" fill="#fc4c02"/>
<rect x="136" y="368" width="7" height="7" fill="#fc4c02"/>
<rect x="136" y="376" width="7" height="7" fill="#fc4c02"/>
<rect x="136" y="384" width="7" height="7" fill="#fc4c02"/>
<rect x="136" y="392" width="7" height="7" fill="#fc4c02"/>
<rect x="136" y="400" width="7" height="7" fill="#fc4c02"/>
<rect x="136" y="408" width="7" height="7" fill="#fc4c02"/>
<rect x="136" y="416" width="7" height="7" fill="#fc4c02"/>
<rect x="136" y="424" width="7" height="7" fill="#fc4c02"/>
<rect x="136" y="432" width="7" height="7" fill="#fc4c02"/>
<rect x="136" y="440" width="7" height="7" fill="#fc4c02"/>
<rect x="136" y="448" width="7" height="7" fill="#fc4c02"/>
<rect x="136" y="472" width="7" height="7" fill="#fc4c02"/>
<rect x="136" y="480" width="7" height="7" fill="#fc4c02"/>
<rect x="136" y="488" width="7" height="7" fill="#fc4c02"/>
<rect x="144" y="304" width="7" height="7" fill="#fc4c02"/>
<rect x="144" y="312" width="7" height="7" fill="#fc4c02"/>
<rect x="144" y="320" width="7" height="7" fill="#fc4c02"/>
<rect x="144" y="328" width="7" height="7" fill="#fc4c02"/>
<rect x="144" y="336" width="7" height="7" fill="#fc4c02"/>
<rect x="144" y="344" width="7" height="7" fill="#fc4c02"/>
<rect x="144" y="352" width="7" height="7" fill="#fc4c02"/>
<rect x="144" y="360" width="7" height="7" fill="#fc4c02"/>
<rect x="144" y="368" width="7" height="7" fill="#fc4c02"/>
<rect x="144" y="376" width="7" height="7" fill="#fc4c02"/>
<rect x="144" y="384" width="7" height="7" fill="#fc4c02"/>
<rect x="144" y="392" width="7" height="7" fill="#fc4c02"/>
<rect x="144" y="400" width="7" height="7" fill="#fc4c02"/>
<rect x="144" y="408" width="7" height="7" fill="#fc4c02"/>
<rect x="144" y="416" width="7" height="7" fill="#fc4c02"/>
<rect x="144" y="424" width="7" height="7" fill="#fc4c02"/>
<rect x="144" y="432" width="7" height="7" fill="#fc4c02"/>
<rect x="144" y="440" width="7" height="7" fill="#fc4c02"/>
<rect x="144" y="448" width="7" height="7" fill="#fc4c02"/>
<rect x="144" y="480" width="7" height="7" fill="#fc4c02"/>
<rect x="144" y="488" width="7" height="7" fill="#fc4c02"/>
<rect x="152" y="296" width="7" height="7" fill="#fc4c02"/>
<rect x="152" y="304" width="7" height="7" fill="#fc4c02"/>
<rect x="152" y="312" width="7" height="7" fill="#fc4c02"/>
<rect x="152" y="320" width="7" height="7" fill="#fc4c02"/>
<rect x="152" y="328" width="7" height="7" fill="#fc4c02"/>
<rect x="152" y="336" width="7" height="7" fill="#fc4c02"/>
<rect x="152" y="344" width="7" height="7" fill="#fc4c02"/>
<rect x="152" y="352" width="7" height="7" fill="#fc4c02"/>
<rect x="152" y="360" width="7" height="7" fill="#fc4c02"/>
<rect x="152" y="368" width="7" height="7" fill="#fc4c02"/>
<rect x="152" y="376" width="7" height="7" fill="#fc4c02"/>
<rect x="152" y="384" width="7" height="7" fill="#fc4c02"/>
<rect x="152" y="392" width="7" height="7" fill="#fc4c02"/>
<rect x="152" y="400" width="7" height="7" fill="#fc4c02"/>
<rect x="152" y="408" width="7" height="7" fill="#fc4c02"/>
<rect x="152" y="416" width="7" height="7" fill="#fc4c02"/>
<rect x="152" y="424" width="7" height="7" fill="#fc4c02"/>
<rect x="152" y="432" width="7" height="7" fill="#fc4c02"/>
<rect x="152" y="440" width="7" height="7" fill="#fc4c02"/>
<rect x="152" y="448" width="7" height="7" fill="#fc4c02"/>
<rect x="152" y="480" width="7" height="7" fill="#fc4c02"/>
<rect x="160" y="280" width="7" height="7" fill="#fc4c02"/>
<rect x="160" y="296" width="7" height="7" fill="#fc4c02"/>
<rect x="160" y="304" width="7" height="7" fill="#fc4c02"/>
<rect x="160" y="336" width="7" height="7" fill="#fc4c02"/>
<rect x="160" y="344" width="7" height="7" fill="#fc4c02"/>
<rect x="160" y="352" width="7" height="7" fill="#fc4c02"/>
<rect x="160" y="360" width="7" height="7" fill="#fc4c02"/>
<rect x="160" y="368" width="7" height="7" fill="#fc4c02"/>
<rect x="160" y="376" width="7" height="7" fill="#fc4c02"/>
<rect x="160" y="384" width="7" height="7" fill="#fc4c02"/>
<rect x="160" y="392" width="7" height="7" fill="#fc4c02"/>
<rect x="160" y="400" width="7" height="7" fill="#fc4c02"/>
<rect x="160" y="408" width="7" height="7" fill="#fc4c02"/>
<rect x="160" y="416" width="7" height="7" fill="#fc4c02"/>
<rect x="160" y="424" width="7" height="7" fill="#fc4c02"/>
<rect x="160" y="432" width="7" height="7" fill="#fc4c02"/>
<rect x="160" y="440" width="7" height="7" fill="#fc4c02"/>
<rect x="160" y="448" width="7" height="7" fill="#fc4c02"/>
<rect x="160" y="480" width="7" height="7" fill="#fc4c02"/>
<rect x="168" y="256" width="7" height="7" fill="#fc4c02"/>
<rect x="168" y="264" width="7" height="7" fill="#fc4c02"/>
<rect x="168" y="272" width="7" height="7" fill="#fc4c02"/>
<rect x="168" y="280" width="7" height="7" fill="#fc4c02"/>
<rect x="168" y="288" width="7" height="7" fill="#fc4c02"/>
<rect x="168" y="296" width="7" height="7" fill="#fc4c02"/>
<rect x="168" y="304" width="7" height="7" fill="#fc4c02"/>
<rect x="168" y="312" width="7" height="7" fill="#fc4c02"/>
<rect x="168" y="320" width="7" height="7" fill="#fc4c02"/>
<rect x="168" y="328" width="7" height="7" fill="#fc4c02"/>
<rect x="168" y="336" width="7" height="7" fill="#fc4c02"/>
<rect x="168" y="344" width="7" height="7" fill="#fc4c02"/>
<rect x="168" y="352" width="7" height="7" fill="#fc4c02"/>
<rect x="168" y="360" width="7" height="7" fill="#fc4c02"/>
<rect x="168" y="368" width="7" height="7" fill="#fc4c02"/>
<rect x="168" y="376" width="7" height="7" fill="#fc4c02"/>
<rect x="168" y="384" width="7" height="7" fill="#fc4c02"/>
<rect x="168" y="392" width="7" height="7" fill="#fc4c02"/>
<rect x="168" y="400" width="7" height="7" fill="#fc4c02"/>
<rect x="168" y="408" width="7" height="7" fill="#fc4c02"/>
<rect x="168" y="416" width="7" height="7" fill="#fc4c02"/>
<rect x="168" y="424" width="7" height="7" fill="#fc4c02"/>
<rect x="168" y="432" width="7" height="7" fill="#fc4c02"/>
<rect x="168" y="440" width="7" height="7" fill="#fc4c02"/>
<rect x="168" y="448" width="7" height="7" fill="#fc4c02"/>
<rect x="168" y="472" width="7" height="7" fill="#fc4c02"/>
<rect x="168" y="480" width="7" height="7" fill="#fc4c02"/>
<rect x="176" y="240" width="7" height="7" fill="#fc4c02"/>
<rect x="176" y="248" width="7" height="7" fill="#fc4c02"/>
<rect x="176" y="256" width="7" height="7" fill="#fc4c02"/>
<rect x="176" y="320" width="7" height="7" fill="#fc4c02"/>
<rect x="176" y="328" width="7" height="7" fill="#fc4c02"/>
<rect x="176" y="336" width="7" height="7" fill="#fc4c02"/>
<rect x="176" y="344" width="7" height="7" fill="#fc4c02"/>
<rect x="176" y="352" width="7" height="7" fill="#fc4c02"/>
<rect x="176" y="360" width="7" height="7" fill="#fc4c02"/>
<rect x="176" y="368" width="7" height="7" fill="#fc4c02"/>
<rect x="176" y="376" width="7" height="7" fill="#fc4c02"/>
<rect x="176" y="384" width="7" height="7" fill="#fc4c02"/>
<rect x="176" y="392" width="7" height="7" fill="#fc4c02"/>
<rect x="176" y="400" width="7" height="7" fill="#fc4c02"/>
<rect x="176" y="408" width="7" height="7" fill="#fc4c02"/>
<rect x="176" y="416" width="7" height="7" fill="#fc4c02"/>
<rect x="176" y="424" width="7" height="7" fill="#fc4c02"/>
<rect x="176" y="432" width="7" height="7" fill="#fc4c02"/>
<rect x="176" y="440" width="7" height="7" fill="#fc4c02"/>
<rect x="176" y="448" width="7" height="7" fill="#fc4c02"/>
<rect x="176" y="456" width="7" height="7" fill="#fc4c02"/>
<rect x="176" y="464" width="7" height="7" fill="#fc4c02"/>
<rect x="176" y="472" width="7" height="7" fill="#fc4c02"/>
<rect x="184" y="208" width="7" height="7" fill="#fc4c02"/>
<rect x="184" y="216" width="7" height="7" fill="#fc4c02"/>
<rect x="184" y="224" width="7" height="7" fill="#fc4c02"/>
<rect x="184" y="232" width="7" height="7" fill="#fc4c02"/>
<rect x="184" y="240" width="7" height="7" fill="#fc4c02"/>
<rect x="184" y="248" width="7" height="7" fill="#fc4c02"/>
<rect x="184" y="304" width="7" height="7" fill="#fc4c02"/>
<rect x="184" y="312" width="7" height="7" fill="#fc4c02"/>
<rect x="184" y="320" width="7" height="7" fill="#fc4c02"/>
<rect x="184" y="328" width="7" height="7" fill="#fc4c02"/>
<rect x="184" y="336" width="7" height="7" fill="#fc4c02"/>
<rect x="184" y="344" width="7" height="7" fill="#fc4c02"/>
<rect x="184" y="352" width="7" height="7" fill="#fc4c02"/>
<rect x="184" y="360" width="7" height="7" fill="#fc4c02"/>
<rect x="184" y="368" width="7" height="7" fill="#fc4c02"/>
<rect x="184" y="376" width="7" height="7" fill="#fc4c02"/>
<rect x="184" y="384" width="7" height="7" fill="#fc4c02"/>
<rect x="184" y="392" width="7" height="7" fill="#fc4c02"/>
<rect x="184" y="400" width="7" height="7" fill="#fc4c02"/>
<rect x="184" y="408" width="7" height="7" fill="#fc4c02"/>
<rect x="184" y="416" width="7" height="7" fill="#fc4c02"/>
<rect x="184" y="424" width="7" height="7" fill="#fc4c02"/>
<rect x="184" y="432" width="7" height="7" fill="#fc4c02"/>
<rect x="184" y="440" width="7" height="7" fill="#fc4c02"/>
<rect x="184" y="448" width="7" height="7" fill="#fc4c02"/>
<rect x="184" y="456" width="7" height="7" fill="#fc4c02"/>
<rect x="184" y="464" width="7" height="7" fill="#fc4c02"/>
<rect x="184" y="472" width="7" height="7" fill="#fc4c02"/>
<rect x="184" y="480" width="7" height="7" fill="#fc4c02"/>
<rect x="184" y="488" width="7" height="7" fill="#fc4c02"/>
<rect x="192" y="200" width="7" height="7" fill="#fc4c02"/>
<rect x="192" y="208" width="7" height="7" fill="#fc4c02"/>
<rect x="192" y="216" width="7" height="7" fill="#fc4c02"/>
<rect x="192" y="224" width="7" height="7" fill="#fc4c02"/>
<rect x="192" y="232" width="7" height="7" fill="#fc4c02"/>
<rect x="192" y="240" width="7" height="7" fill="#fc4c02"/>
<rect x="192" y="248" width="7" height="7" fill="#fc4c02"/>
<rect x="192" y="256" width="7" height="7" fill="#fc4c02"/>
<rect x="192" y="264" width="7" height="7" fill="#fc4c02"/>
<rect x="192" y="288" width="7" height="7" fill="#fc4c02"/>
<rect x="192" y="296" width="7" height="7" fill="#fc4c02"/>
<rect x="192" y="304" width="7" height="7" fill="#fc4c02"/>
<rect x="192" y="312" width="7" height="7" fill="#fc4c02"/>
<rect x="192" y="320" width="7" height="7" fill="#fc4c02"/>
<rect x="192" y="328" width="7" height="7" fill="#fc4c02"/>
<rect x="192" y="336" width="7" height="7" fill="#fc4c02"/>
<rect x="192" y="344" width="7" height="7" fill="#fc4c02"/>
<rect x="192" y="352" width="7" height="7" fill="#fc4c02"/>
<rect x="192" y="368" width="7" height="7" fill="#fc4c02"/>
<rect x="192" y="376" width="7" height="7" fill="#fc4c02"/>
<rect x="192" y="384" width="7" height="7" fill="#fc4c02"/>
<rect x="192" y="392" width="7" height="7" fill="#fc4c02"/>
<rect x="192" y="400" width="7" height="7" fill="#fc4c02"/>
<rect x="192" y="408" width="7" height="7" fill="#fc4c02"/>
<rect x="192" y="416" width="7" height="7" fill="#fc4c02"/>
<rect x="192" y="424" width="7" height="7" fill="#fc4c02"/>
<rect x="192" y="432" width="7" height="7" fill="#fc4c02"/>
<rect x="192" y="440" width="7" height="7" fill="#fc4c02"/>
<rect x="192" y="448" width="7" height="7" fill="#fc4c02"/>
<rect x="192" y="456" width="7" height="7" fill="#fc4c02"/>
<rect x="192" y="464" width="7" height="7" fill="#fc4c02"/>
<rect x="192" y="480" width="7" height="7" fill="#fc4c02"/>
<rect x="192" y="488" width="7" height="7" fill="#fc4c02"/>
<rect x="192" y="496" width="7" height="7" fill="#fc4c02"/>
<rect x="200" y="200" width="7" height="7" fill="#fc4c02"/>
<rect x="200" y="240" width="7" height="7" fill="#fc4c02"/>
<rect x="200" y="248" width="7" height="7" fill="#fc4c02"/>
<rect x="200" y="256" width="7" height="7" fill="#fc4c02"/>
<rect x="200" y="264" width="7" height="7" fill="#fc4c02"/>
<rect x="200" y="272" width="7" height="7" fill="#fc4c02"/>
<rect x="200" y="280" width="7" height="7" fill="#fc4c02"/>
<rect x="200" y="288" width="7" height="7" fill="#fc4c02"/>
<rect x="200" y="296" width="7" height="7" fill="#fc4c02"/>
<rect x="200" y="304" width="7" height="7" fill="#fc4c02"/>
<rect x="200" y="312" width="7" height="7" fill="#fc4c02"/>
<rect x="200" y="320" width="7" height="7" fill="#fc4c02"/>
<rect x="200" y="328" width="7" height="7" fill="#fc4c02"/>
<rect x="200" y="336" width="7" height="7" fill="#fc4c02"/>
<rect x="200" y="344" width="7" height="7" fill="#fc4c02"/>
<rect x="200" y="376" width="7" height="7" fill="#fc4c02"/>
<rect x="200" y="384" width="7" height="7" fill="#fc4c02"/>
<rect x="200" y="392" width="7" height="7" fill="#fc4c02"/>
<rect x="200" y="400" width="7" height="7" fill="#fc4c02"/>
<rect x="200" y="408" width="7" height="7" fill="#fc4c02"/>
<rect x="200" y="416" width="7" height="7" fill="#fc4c02"/>
<rect x="200" y="440" width="7" height="7" fill="#fc4c02"/>
<rect x="200" y="488" width="7" height="7" fill="#fc4c02"/>
<rect x="200" y="496" width="7" height="7" fill="#fc4c02"/>
<rect x="200" y="504" width="7" height="7" fill="#fc4c02"/>
<rect x="208" y="200" width="7" height="7" fill="#fc4c02"/>
<rect x="208" y="256" width="7" height="7" fill="#fc4c02"/>
<rect x="208" y="264" width="7" height="7" fill="#fc4c02"/>
<rect x="208" y="272" width="7" height="7" fill="#fc4c02"/>
<rect x="208" y="288" width="7" height="7" fill="#fc4c02"/>
<rect x="208" y="296" width="7" height="7" fill="#fc4c02"/>
<rect x="208" y="304" width="7" height="7" fill="#fc4c02"/>
<rect x="208" y="320" width="7" height="7" fill="#fc4c02"/>
<rect x="208" y="328" width="7" height="7" fill="#fc4c02"/>
<rect x="208" y="336" width="7" height="7" fill="#fc4c02"/>
<rect x="208" y="376" width="7" height="7" fill="#fc4c02"/>
<rect x="208" y="384" width="7" height="7" fill="#fc4c02"/>
<rect x="208" y="392" width="7" height="7" fill="#fc4c02"/>
<rect x="208" y="400" width="7" height="7" fill="#fc4c02"/>
<rect x="208" y="408" width="7" height="7" fill="#fc4c02"/>
<rect x="208" y="416" width="7" height="7" fill="#fc4c02"/>
<rect x="208" y="424" width="7" height="7" fill="#fc4c02"/>
<rect x="208" y="440" width="7" height="7" fill="#fc4c02"/>
<rect x="208" y="496" width="7" height="7" fill="#fc4c02"/>
<rect x="208" y="504" width="7" height="7" fill="#fc4c02"/>
<rect x="208" y="512" width="7" height="7" fill="#fc4c02"/>
<rect x="216" y="192" width="7" height="7" fill="#fc4c02"/>
<rect x="216" y="200" width="7" height="7" fill="#fc4c02"/>
<rect x="216" y="272" width="7" height="7" fill="#fc4c02"/>
<rect x="216" y="280" width="7" height="7" fill="#fc4c02"/>
<rect x="216" y="288" width="7" height="7" fill="#fc4c02"/>
<rect x="216" y="312" width="7" height="7" fill="#fc4c02"/>
<rect x="216" y="320" width="7" height="7" fill="#fc4c02"/>
<rect x="216" y="376" width="7" height="7" fill="#fc4c02"/>
<rect x="216" y="384" width="7" height="7" fill="#fc4c02"/>
<rect x="216" y="392" width="7" height="7" fill="#fc4c02"/>
<rect x="216" y="400" width="7" height="7" fill="#fc4c02"/>
<rect x="216" y="408" width="7" height="7" fill="#fc4c02"/>
<rect x="216" y="424" width="7" height="7" fill="#fc4c02"/>
<rect x="216" y="432" width="7" height="7" fill="#fc4c02"/>
<rect x="216" y="440" width="7" height="7" fill="#fc4c02"/>
<rect x="216" y="448" width="7" height="7" fill="#fc4c02"/>
<rect x="216" y="504" width="7" height="7" fill="#fc4c02"/>
<rect x="216" y="512" width="7" height="7" fill="#fc4c02"/>
<rect x="216" y="520" width="7" height="7" fill="#fc4c02"/>
<rect x="216" y="528" width="7" height="7" fill="#fc4c02"/>
<rect x="224" y="184" width="7" height="7" fill="#fc4c02"/>
<rect x="224" y="192" width="7" height="7" fill="#fc4c02"/>
<rect x="224" y="304" width="7" height="7" fill="#fc4c02"/>
<rect x="224" y="312" width="7" height="7" fill="#fc4c02"/>
<rect x="224" y="376" width="7" height="7" fill="#fc4c02"/>
<rect x="224" y="384" width="7" height="7" fill="#fc4c02"/>
<rect x="224" y="392" width="7" height="7" fill="#fc4c02"/>
<rect x="224" y="408" width="7" height="7" fill="#fc4c02"/>
<rect x="224" y="416" width="7" height="7" fill="#fc4c02"/>
<rect x="224" y="432" width="7" height="7" fill="#fc4c02"/>
<rect x="224" y="448" width="7" height="7" fill="#fc4c02"/>
<rect x="224" y="512" width="7" height="7" fill="#fc4c02"/>
<rect x="224" y="520" width="7" height="7" fill="#fc4c02"/>
<rect x="224" y="528" width="7" height="7" fill="#fc4c02"/>
<rect x="232" y="192" width="7" height="7" fill="#fc4c02"/>
<rect x="232" y="304" width="7" height="7" fill="#fc4c02"/>
<rect x="232" y="352" width="7" height="7" fill="#fc4c02"/>
<rect x="232" y="360" width="7" height="7" fill="#fc4c02"/>
<rect x="232" y="368" width="7" height="7" fill="#fc4c02"/>
<rect x="232" y="376" width="7" height="7" fill="#fc4c02"/>
<rect x="232" y="384" width="7" height="7" fill="#fc4c02"/>
<rect x="232" y="392" width="7" height="7" fill="#fc4c02"/>
<rect x="232" y="400" width="7" height="7" fill="#fc4c02"/>
<rect x="232" y="408" width="7" height="7" fill="#fc4c02"/>
<rect x="232" y="416" width="7" height="7" fill="#fc4c02"/>
<rect x="232" y="424" width="7" height="7" fill="#fc4c02"/>
<rect x="232" y="432" width="7" height="7" fill="#fc4c02"/>
<rect x="232" y="448" width="7" height="7" fill="#fc4c02"/>
<rect x="232" y="456" width="7" height="7" fill="#fc4c02"/>
<rect x="232" y="520" width="7" height="7" fill="#fc4c02"/>
<rect x="232" y="528" width="7" height="7" fill="#fc4c02"/>
<rect x="232" y="536" width="7" height="7" fill="#fc4c02"/>
<rect x="232" y="544" width="7" height="7" fill="#fc4c02"/>
<rect x="232" y="552" width="7" height="7" fill="#fc4c02"/>
<rect x="240" y="184" width="7" height="7" fill="#fc4c02"/>
<rect x="240" y="192" width="7" height="7" fill="#fc4c02"/>
<rect x="240" y="344" width="7" height="7" fill="#fc4c02"/>
<rect x="240" y="352" width="7" height="7" fill="#fc4c02"/>
<rect x="240" y="368" width="7" height="7" fill="#fc4c02"/>
<rect x="240" y="376" width="7" height="7" fill="#fc4c02"/>
<rect x="240" y="384" width="7" height="7" fill="#fc4c02"/>
<rect x="240" y="400" width="7" height="7" fill="#fc4c02"/>
<rect x="240" y="408" width="7" height="7" fill="#fc4c02"/>
<rect x="240" y="416" width="7" height="7" fill="#fc4c02"/>
<rect x="240" y="424" width="7" height="7" fill="#fc4c02"/>
<rect x="240" y="432" width="7" height="7" fill="#fc4c02"/>
<rect x="240" y="440" width="7" height="7" fill="#fc4c02"/>
<rect x="240" y="456" width="7" height="7" fill="#fc4c02"/>
<rect x="240" y="464" width="7" height="7" fill="#fc4c02"/>
<rect x="240" y="496" width="7" height="7" fill="#fc4c02"/>
<rect x="240" y="504" width="7" height="7" fill="#fc4c02"/>
<rect x="240" y="512" width="7" height="7" fill="#fc4c02"/>
<rect x="240" y="520" width="7" height="7" fill="#fc4c02"/>
<rect x="240" y="528" width="7" height="7" fill="#fc4c02"/>
<rect x="240" y="536" width="7" height="7" fill="#fc4c02"/>
<rect x="240" y="544" width="7" height="7" fill="#fc4c02"/>
<rect x="240" y="552" width="7" height="7" fill="#fc4c02"/>
<rect x="248" y="192" width="7" height="7" fill="#fc4c02"/>
<rect x="248" y="336" width="7" height="7" fill="#fc4c02"/>
<rect x="248" y="344" width="7" height="7" fill="#fc4c02"/>
<rect x="248" y="360" width="7" height="7" fill="#fc4c02"/>
<rect x="248" y="368" width="7" height="7" fill="#fc4c02"/>
<rect x="248" y="376" width="7" height="7" fill="#fc4c02"/>
<rect x="248" y="384" width="7" height="7" fill="#fc4c02"/>
<rect x="248" y="400" width="7" height="7" fill="#fc4c02"/>
<rect x="248" y="408" width="7" height="7" fill="#fc4c02"/>
<rect x="248" y="432" width="7" height="7" fill="#fc4c02"/>
<rect x="248" y="440" width="7" height="7" fill="#fc4c02"/>
<rect x="248" y="448" width="7" height="7" fill="#fc4c02"/>
<rect x="248" y="464" width="7" height="7" fill="#fc4c02"/>
<rect x="248" y="472" width="7" height="7" fill="#fc4c02"/>
<rect x="248" y="480" width="7" height="7" fill="#fc4c02"/>
<rect x="248" y="488" width="7" height="7" fill="#fc4c02"/>
<rect x="248" y="496" width="7" height="7" fill="#fc4c02"/>
<rect x="248" y="512" width="7" height="7" fill="#fc4c02"/>
<rect x="248" y="520" width="7" height="7" fill="#fc4c02"/>
<rect x="248" y="528" width="7" height="7" fill="#fc4c02"/>
<rect x="248" y="536" width="7" height="7" fill="#fc4c02"/>
<rect x="248" y="544" width="7" height="7" fill="#fc4c02"/>
<rect x="256" y="184" width="7" height="7" fill="#fc4c02"/>
<rect x="256" y="192" width="7" height="7" fill="#fc4c02"/>
<rect x="256" y="328" width="7" height="7" fill="#fc4c02"/>
<rect x="256" y="336" width="7" height="7" fill="#fc4c02"/>
<rect x="256" y="360" width="7" height="7" fill="#fc4c02"/>
<rect x="256" y="376" width="7" height="7" fill="#fc4c02"/>
<rect x="256" y="384" width="7" height="7" fill="#fc4c02"/>
<rect x="256" y="408" width="7" height="7" fill="#fc4c02"/>
<rect x="256" y="416" width="7" height="7" fill="#fc4c02"/>
<rect x="256" y="432" width="7" height="7" fill="#fc4c02"/>
<rect x="256" y="448" width="7" height="7" fill="#fc4c02"/>
<rect x="256" y="456" width="7" height="7" fill="#fc4c02"/>
<rect x="256" y="480" width="7" height="7" fill="#fc4c02"/>
<rect x="256" y="488" width="7" height="7" fill="#fc4c02"/>
<rect x="256" y="496" width="7" height="7" fill="#fc4c02"/>
<rect x="256" y="504" width="7" height="7" fill="#fc4c02"/>
<rect x="256" y="512" width="7" height="7" fill="#fc4c02"/>
<rect x="256" y="520" width="7" height="7" fill="#fc4c02"/>
<rect x="256" y="536" width="7" height="7" fill="#fc4c02"/>
<rect x="256" y="544" width="7" height="7" fill="#fc4c02"/>
<rect x="264" y="184" width="7" height="7" fill="#fc4c02"/>
<rect x="264" y="328" width="7" height="7" fill="#fc4c02"/>
<rect x="264" y="360" width="7" height="7" fill="#fc4c02"/>
<rect x="264" y="384" width="7" height="7" fill="#fc4c02"/>
<rect x="264" y="416" width="7" height="7" fill="#fc4c02"/>
<rect x="264" y="432" width="7" height="7" fill="#fc4c02"/>
<rect x="264" y="440" width="7" height="7" fill="#fc4c02"/>
<rect x="264" y="448" width="7" height="7" fill="#fc4c02"/>
<rect x="264" y="456" width="7" height="7" fill="#fc4c02"/>
<rect x="264" y="464" width="7" height="7" fill="#fc4c02"/>
<rect x="264" y="472" width="7" height="7" fill="#fc4c02"/>
<rect x="264" y="480" width="7" height="7" fill="#fc4c02"/>
<rect x="264" y="488" width="7" height="7" fill="#fc4c02"/>
<rect x="264" y="504" width="7" height="7" fill="#fc4c02"/>
<rect x="264" y="536" width="7" height="7" fill="#fc4c02"/>
<rect x="264" y="544" width="7" height="7" fill="#fc4c02"/>
<rect x="272" y="168" width="7" height="7" fill="#fc4c02"/>
<rect x="272" y="176" width="7" height="7" fill="#fc4c02"/>
<rect x="272" y="184" width="7" height="7" fill="#fc4c02"/>
<rect x="272" y="320" width="7" height="7" fill="#fc4c02"/>
<rect x="272" y="328" width="7" height="7" fill="#fc4c02"/>
<rect x="272" y="384" width="7" height="7" fill="#fc4c02"/>
<rect x="272" y="416" width="7" height="7" fill="#fc4c02"/>
<rect x="272" y="448" width="7" height="7" fill="#fc4c02"/>
<rect x="272" y="456" width="7" height="7" fill="#fc4c02"/>
<rect x="272" y="464" width="7" height="7" fill="#fc4c02"/>
<rect x="272" y="472" width="7" height="7" fill="#fc4c02"/>
<rect x="272" y="480" width="7" height="7" fill="#fc4c02"/>
<rect x="272" y="488" width="7" height="7" fill="#fc4c02"/>
<rect x="272" y="496" width="7" height="7" fill="#fc4c02"/>
<rect x="272" y="504" width="7" height="7" fill="#fc4c02"/>
<rect x="272" y="528" width="7" height="7" fill="#fc4c02"/>
<rect x="272" y="536" width="7" height="7" fill="#fc4c02"/>
<rect x="272" y="544" width="7" height="7" fill="#fc4c02"/>
<rect x="272" y="552" width="7" height="7" fill="#fc4c02"/>
<rect x="280" y="168" width="7" height="7" fill="#fc4c02"/>
<rect x="280" y="320" width="7" height="7" fill="#fc4c02"/>
<rect x="280" y="384" width="7" height="7" fill="#fc4c02"/>
<rect x="280" y="392" width="7" height="7" fill="#fc4c02"/>
<rect x="280" y="416" width="7" height="7" fill="#fc4c02"/>
<rect x="280" y="424" width="7" height="7" fill="#fc4c02"/>
<rect x="280" y="448" width="7" height="7" fill="#fc4c02"/>
<rect x="280" y="456" width="7" height="7" fill="#fc4c02"/>
<rect x="280" y="480" width="7" height="7" fill="#fc4c02"/>
<rect x="280" y="504" width="7" height="7" fill="#fc4c02"/>
<rect x="280" y="512" width="7" height="7" fill="#fc4c02"/>
<rect x="280" y="520" width="7" height="7" fill="#fc4c02"/>
<rect x="280" y="528" width="7" height="7" fill="#fc4c02"/>
<rect x="280" y="536" width="7" height="7" fill="#fc4c02"/>
<rect x="280" y="544" width="7" height="7" fill="#fc4c02"/>
<rect x="280" y="552" width="7" height="7" fill="#fc4c02"/>
<rect x="280" y="560" width="7" height="7" fill="#fc4c02"/>
<rect x="288" y="168" width="7" height="7" fill="#fc4c02"/>
<rect x="288" y="312" width="7" height="7" fill="#fc4c02"/>
<rect x="288" y="320" width="7" height="7" fill="#fc4c02"/>
<rect x="288" y="392" width="7" height="7" fill="#fc4c02"/>
<rect x="288" y="416" width="7" height="7" fill="#fc4c02"/>
<rect x="288" y="424" width="7" height="7" fill="#fc4c02"/>
<rect x="288" y="456" width="7" height="7" fill="#fc4c02"/>
<rect x="288" y="464" width="7" height="7" fill="#fc4c02"/>
<rect x="288" y="480" width="7" height="7" fill="#fc4c02"/>
<rect x="288" y="488" width="7" height="7" fill="#fc4c02"/>
<rect x="288" y="496" width="7" height="7" fill="#fc4c02"/>
<rect x="288" y="520" width="7" height="7" fill="#fc4c02"/>
<rect x="288" y="528" width="7" height="7" fill="#fc4c02"/>
<rect x="288" y="544" width="7" height="7" fill="#fc4c02"/>
<rect x="288" y="560" width="7" height="7" fill="#fc4c02"/>
<rect x="288" y="568" width="7" height="7" fill="#fc4c02"/>
<rect x="296" y="168" width="7" height="7" fill="#fc4c02"/>
<rect x="296" y="304" width="7" height="7" fill="#fc4c02"/>
<rect x="296" y="312" width="7" height="7" fill="#fc4c02"/>
<rect x="296" y="392" width="7" height="7" fill="#fc4c02"/>
<rect x="296" y="400" width="7" height="7" fill="#fc4c02"/>
<rect x="296" y="424" width="7" height="7" fill="#fc4c02"/>
<rect x="296" y="432" width="7" height="7" fill="#fc4c02"/>
<rect x="296" y="440" width="7" height="7" fill="#fc4c02"/>
<rect x="296" y="448" width="7" height="7" fill="#fc4c02"/>
<rect x="296" y="464" width="7" height="7" fill="#fc4c02"/>
<rect x="296" y="472" width="7" height="7" fill="#fc4c02"/>
<rect x="296" y="496" width="7" height="7" fill="#fc4c02"/>
<rect x="296" y="520" width="7" height="7" fill="#fc4c02"/>
<rect x="296" y="528" width="7" height="7" fill="#fc4c02"/>
<rect x="296" y="536" width="7" height="7" fill="#fc4c02"/>
<rect x="296" y="544" width="7" height="7" fill="#fc4c02"/>
<rect x="296" y="552" width="7" height="7" fill="#fc4c02"/>
<rect x="296" y="560" width="7" height="7" fill="#fc4c02"/>
<rect x="296" y="568" width="7" height="7" fill="#fc4c02"/>
<rect x="296" y="576" width="7" height="7" fill="#fc4c02"/>
<rect x="304" y="168" width="7" height="7" fill="#fc4c02"/>
<rect x="304" y="176" width="7" height="7" fill="#fc4c02"/>
<rect x="304" y="296" width="7" height="7" fill="#fc4c02"/>
<rect x="304" y="304" width="7" height="7" fill="#fc4c02"/>
<rect x="304" y="400" width="7" height="7" fill="#fc4c02"/>
<rect x="304" y="408" width="7" height="7" fill="#fc4c02"/>
<rect x="304" y="432" width="7" height="7" fill="#fc4c02"/>
<rect x="304" y="472" width="7" height="7" fill="#fc4c02"/>
<rect x="304" y="488" width="7" height="7" fill="#fc4c02"/>
<rect x="304" y="496" width="7" height="7" fill="#fc4c02"/>
<rect x="304" y="528" width="7" height="7" fill="#fc4c02"/>
<rect x="304" y="536" width="7" height="7" fill="#fc4c02"/>
<rect x="304" y="544" width="7" height="7" fill="#fc4c02"/>
<rect x="304" y="552" width="7" height="7" fill="#fc4c02"/>
<rect x="304" y="560" width="7" height="7" fill="#fc4c02"/>
<rect x="304" y="568" width="7" height="7" fill="#fc4c02"/>
<rect x="304" y="576" width="7" height="7" fill="#fc4c02"/>
<rect x="304" y="584" width="7" height="7" fill="#fc4c02"/>
<rect x="304" y="592" width="7" height="7" fill="#fc4c02"/>
<rect x="312" y="176" width="7" height="7" fill="#fc4c02"/>
<rect x="312" y="296" width="7" height="7" fill="#fc4c02"/>
<rect x="312" y="408" width="7" height="7" fill="#fc4c02"/>
<rect x="312" y="416" width="7" height="7" fill="#fc4c02"/>
<rect x="312" y="432" width="7" height="7" fill="#fc4c02"/>
<rect x="312" y="472" width="7" height="7" fill="#fc4c02"/>
<rect x="312" y="480" width="7" height="7" fill="#fc4c02"/>
<rect x="312" y="488" width="7" height="7" fill="#fc4c02"/>
<rect x="312" y="528" width="7" height="7" fill="#fc4c02"/>
<rect x="312" y="536" width="7" height="7" fill="#fc4c02"/>
<rect x="312" y="544" width="7" height="7" fill="#fc4c02"/>
<rect x="312" y="552" width="7" height="7" fill="#fc4c02"/>
<rect x="312" y="560" width="7" height="7" fill="#fc4c02"/>
<rect x="312" y="568" width="7" height="7" fill="#fc4c02"/>
<rect x="312" y="592" width="7" height="7" fill="#fc4c02"/>
<rect x="312" y="600" width="7" height="7" fill="#fc4c02"/>
<rect x="320" y="176" width="7" height="7" fill="#fc4c02"/>
<rect x="320" y="184" width="7" height="7" fill="#fc4c02"/>
<rect x="320" y="288" width="7" height="7" fill="#fc4c02"/>
<rect x="320" y="296" width="7" height="7" fill="#fc4c02"/>
<rect x="320" y="416" width="7" height="7" fill="#fc4c02"/>
<rect x="320" y="424" width="7" height="7" fill="#fc4c02"/>
<rect x="320" y="432" width="7" height="7" fill="#fc4c02"/>
<rect x="320" y="480" width="7" height="7" fill="#fc4c02"/>
<rect x="320" y="488" width="7" height="7" fill="#fc4c02"/>
<rect x="320" y="536" width="7" height="7" fill="#fc4c02"/>
<rect x="320" y="544" width="7" height="7" fill="#fc4c02"/>
<rect x="320" y="552" width="7" height="7" fill="#fc4c02"/>
<rect x="320" y="560" width="7" height="7" fill="#fc4c02"/>
<rect x="320" y="568" width="7" height="7" fill="#fc4c02"/>
<rect x="320" y="600" width="7" height="7" fill="#fc4c02"/>
<rect x="328" y="184" width="7" height="7" fill="#fc4c02"/>
<rect x="328" y="192" width="7" height="7" fill="#fc4c02"/>
<rect x="328" y="288" width="7" height="7" fill="#fc4c02"/>
<rect x="328" y="424" width="7" height="7" fill="#fc4c02"/>
<rect x="328" y="432" width="7" height="7" fill="#fc4c02"/>
<rect x="328" y="480" width="7" height="7" fill="#fc4c02"/>
<rect x="328" y="488" width="7" height="7" fill="#fc4c02"/>
<rect x="328" y="536" width="7" height="7" fill="#fc4c02"/>
<rect x="328" y="544" width="7" height="7" fill="#fc4c02"/>
<rect x="328" y="552" width="7" height="7" fill="#fc4c02"/>
<rect x="328" y="560" width="7" height="7" fill="#fc4c02"/>
<rect x="328" y="568" width="7" height="7" fill="#fc4c02"/>
<rect x="328" y="600" width="7" height="7" fill="#fc4c02"/>
<rect x="336" y="192" width="7" height="7" fill="#fc4c02"/>
<rect x="336" y="200" width="7" height="7" fill="#fc4c02"/>
<rect x="336" y="208" width="7" height="7" fill="#fc4c02"/>
<rect x="336" y="264" width="7" height="7" fill="#fc4c02"/>
<rect x="336" y="280" width="7" height="7" fill="#fc4c02"/>
<rect x="336" y="288" width="7" height="7" fill="#fc4c02"/>
<rect x="336" y="424" width="7" height="7" fill="#fc4c02"/>
<rect x="336" y="432" width="7" height="7" fill="#fc4c02"/>
<rect x="336" y="536" width="7" height="7" fill="#fc4c02"/>
<rect x="336" y="560" width="7" height="7" fill="#fc4c02"/>
<rect x="336" y="568" width="7" height="7" fill="#fc4c02"/>
<rect x="336" y="600" width="7" height="7" fill="#fc4c02"/>
<rect x="344" y="208" width="7" height="7" fill="#fc4c02"/>
<rect x="344" y="216" width="7" height="7" fill="#fc4c02"/>
<rect x="344" y="224" width="7" height="7" fill="#fc4c02"/>
<rect x="344" y="248" width="7" height="7" fill="#fc4c02"/>
<rect x="344" y="256" width="7" height="7" fill="#fc4c02"/>
<rect x="344" y="264" width="7" height="7" fill="#fc4c02"/>
<rect x="344" y="272" width="7" height="7" fill="#fc4c02"/>
<rect x="344" y="280" width="7" height="7" fill="#fc4c02"/>
<rect x="344" y="424" width="7" height="7" fill="#fc4c02"/>
<rect x="344" y="432" width="7" height="7" fill="#fc4c02"/>
<rect x="344" y="536" width="7" height="7" fill="#fc4c02"/>
<rect x="344" y="544" width="7" height="7" fill="#fc4c02"/>
<rect x="344" y="552" width="7" height="7" fill="#fc4c02"/>
<rect x="344" y="568" width="7" height="7" fill="#fc4c02"/>
<rect x="344" y="576" width="7" height="7" fill="#fc4c02"/>
<rect x="344" y="592" width="7" height="7" fill="#fc4c02"/>
<rect x="344" y="600" width="7" height="7" fill="#fc4c02"/>
<rect x="352" y="224" width="7" height="7" fill="#fc4c02"/>
<rect x="352" y="232" width="7" height="7" fill="#fc4c02"/>
<rect x="352" y="240" width="7" height="7" fill="#fc4c02"/>
<rect x="352" y="248" width="7" height="7" fill="#fc4c02"/>
<rect x="352" y="424" width="7" height="7" fill="#fc4c02"/>
<rect x="352" y="432" width="7" height="7" fill="#fc4c02"/>
<rect x="352" y="552" width="7" height="7" fill="#fc4c02"/>
<rect x="352" y="576" width="7" height="7" fill="#fc4c02"/>
<rect x="352" y="592" width="7" height="7" fill="#fc4c02"/>
<rect x="360" y="424" width="7" height="7" fill="#fc4c02"/>
<rect x="360" y="552" width="7" height="7" fill="#fc4c02"/>
<rect x="360" y="560" width="7" height="7" fill="#fc4c02"/>
<rect x="360" y="568" width="7" height="7" fill="#fc4c02"/>
<rect x="360" y="576" width="7" height="7" fill="#fc4c02"/>
<rect x="360" y="584" width="7" height="7" fill="#fc4c02"/>
<rect x="360" y="592" width="7" height="7" fill="#fc4c02"/>
<rect x="368" y="424" width="7" height="7" fill="#fc4c02"/>
<rect x="368" y="560" width="7" height="7" fill="#fc4c02"/>
<rect x="368" y="568" width="7" height="7" fill="#fc4c02"/>
<rect x="368" y="576" width="7" height="7" fill="#fc4c02"/>
<rect x="368" y="584" width="7" height="7" fill="#fc4c02"/>
<rect x="368" y="592" width="7" height="7" fill="#fc4c02"/>
<rect x="368" y="600" width="7" height="7" fill="#fc4c02"/>
<rect x="376" y="424" width="7" height="7" fill="#fc4c02"/>
<rect x="376" y="560" width="7" height="7" fill="#fc4c02"/>
<rect x="376" y="568" width="7" height="7" fill="#fc4c02"/>
<rect x="376" y="600" width="7" height="7" fill="#fc4c02"/>
<rect x="384" y="416" width="7" height="7" fill="#fc4c02"/>
<rect x="384" y="424" width="7" height="7" fill="#fc4c02"/>
<rect x="392" y="416" width="7" height="7" fill="#fc4c02"/>
<rect x="392" y="424" width="7" height="7" fill="#fc4c02"/>
<rect x="400" y="424" width="7" height="7" fill="#fc4c02"/>
<rect x="408" y="424" width="7" height="7" fill="#fc4c02"/>
<rect x="408" y="432" width="7" height="7" fill="#fc4c02"/>
<rect x="416" y="432" width="7" height="7" fill="#fc4c02"/>
</svg>
